# xmcd
#
# Track frame offsets:
#	150
#	55526
#	92772
#	135100
#	154789
#	193756
#	236059
#	282621
#
# Disc length: 4393 seconds
#
# Revision: 3
# Processed by: cddbd v1.5.2PL0 Copyright (c) Steve Scherf et al.
# Submitted via: audiograbber 1.83.01
#
DISCID=67112708
DTITLE=Jay Stapley - 2001 - Mystic Hits - Best Dreams - Vol.07
DYEAR=2001
DGENRE=New Age
TTITLE0=Ambient Blue
TTITLE1=Loop E. Lou
TTITLE2=Delta Curve
TTITLE3=Sleepin'n' Slidin
TTITLE4=Krazekate
TTITLE5=The Lump
TTITLE6=Slow Lane
TTITLE7=Blue Wail
EXTD=
EXTT0=
EXTT1=
EXTT2=
EXTT3=
EXTT4=
EXTT5=
EXTT6=
EXTT7=
PLAYORDER=
